<?xml version="1.0" encoding="utf-8"?>
<!-- Generator: Adobe Illustrator 16.0.0, SVG Export Plug-In . SVG Version: 6.00 Build 0)  -->
<!DOCTYPE svg PUBLIC "-//W3C//DTD SVG 1.1//EN" "http://www.w3.org/Graphics/SVG/1.1/DTD/svg11.dtd">
<svg version="1.1" id="Layer_1" xmlns="http://www.w3.org/2000/svg" xmlns:xlink="http://www.w3.org/1999/xlink" x="0px" y="0px"
	 width="100px" height="100px" viewBox="0 0 100 100" enable-background="new 0 0 100 100" xml:space="preserve">
<path fill="#818181" d="M59.975,15.531c-6.848,0.01-13.273,3.294-17.295,8.844l-0.411,0.567l-0.671-0.19
	c-1.473-0.416-2.996-0.631-4.526-0.637c-9.091,0.014-16.524,7.214-16.842,16.316l-0.031,0.855l-0.849,0.102
	c-6.084,0.731-10.651,5.881-10.661,12.02v0.002c0.001,6.707,5.407,12.121,12.102,12.121h3.322c0.589-1.477,1.377-2.828,2.297-4.092
	l-5.6,0.092H20.8c-4.47,0-8.115-3.646-8.115-8.115c0-3.366,1.763-5.854,4.17-7.211c2.048-1.154,4.522-1.433,6.938-1.211
	c-0.458-4.202,0.209-8.238,2.176-11.357c2.15-3.412,5.85-5.666,10.734-5.666c2.806,0,5.319,1.063,7.457,2.701
	c2.545-6.614,8.791-11.138,15.965-11.141c9.521,0.001,17.26,7.74,17.26,17.26v0.002v0.002c-0.005,1.498-0.358,2.956-0.745,4.399
	c5.03,0.398,9.048,4.506,9.048,9.638c0.001,4.139-2.635,7.588-6.279,9.016c0.326,1.08,0.611,2.18,0.791,3.318
	c0.511,0.35,0.987,0.742,1.451,1.146c5.283-2.223,9.037-7.371,9.037-13.481c0-5.812-3.426-11.069-8.73-13.424l-0.58-0.257
	l-0.014-0.636C81.113,24.848,71.623,15.539,59.975,15.531 M57.005,48.5c-7.043,0-13.026,4.346-15.889,10.567l-0.246,0.537
	l-0.59,0.043c-6.467,0.471-11.592,6.07-11.592,12.9c0,7.137,5.573,12.984,12.455,12.984h15.861H71.79
	c5.129,0,9.283-4.365,9.283-9.666c0-4.021-2.406-7.385-5.82-8.838l-0.58-0.246l-0.027-0.629C74.202,56.361,66.522,48.5,57.005,48.5
	 M57.079,52.549h0.002c6.954,0,12.623,5.336,13.289,12.119l0.105-0.105l-0.01,1.07c0.003,0.113,0.033,0.221,0.033,0.336v0.002
	c0,0.309-0.021,0.602-0.043,0.895v0.141c0,0.033-0.009,0.041-0.01,0.074c0,0.004,0,0.004,0,0.008
	c-0.02,0.967-0.148,1.457-0.273,2.15c0.313-0.035,0.307-0.07,0.711-0.076h0.01h0.01c3.422,0,6.217,2.797,6.217,6.219
	s-2.795,6.217-6.217,6.219l-29.236,0.012c-4.991,0-9.058-4.066-9.059-9.057c0-4.992,4.066-9.059,9.059-9.059
	c0.797,0,1.559,0.252,2.324,0.459C44.999,57.496,50.432,52.555,57.079,52.549"/>
</svg>
