<?xml version="1.0" encoding="utf-8"?>
<!-- Generator: Adobe Illustrator 16.0.0, SVG Export Plug-In . SVG Version: 6.00 Build 0)  -->
<!DOCTYPE svg PUBLIC "-//W3C//DTD SVG 1.1//EN" "http://www.w3.org/Graphics/SVG/1.1/DTD/svg11.dtd">
<svg version="1.1" id="Layer_1" xmlns="http://www.w3.org/2000/svg" xmlns:xlink="http://www.w3.org/1999/xlink" x="0px" y="0px"
	 width="100px" height="100px" viewBox="0 0 100 100" enable-background="new 0 0 100 100" xml:space="preserve">
<path fill="#818181" d="M22.384,58.326c0.157,0.785,0.342,1.566,0.555,2.34C22.726,59.893,22.541,59.111,22.384,58.326"/>
<path fill="#818181" d="M33.675,14.738v0.007h-0.012c-1.445,2.071-2.622,4.172-3.442,5.757c-1.776,0.263-4.07,0.684-6.311,1.341
	v0.007c0,0.003,0.012,0,0.012,0v0.007c1.472,2.028,3.06,3.815,4.286,5.108c-0.262,1.768-0.519,4.046-0.54,6.352
	c0,0.003,0.012,0,0.012,0c0,0.003,0.012,0,0.012,0c2.334-0.807,4.47-1.787,6.056-2.578c1.612,0.814,3.758,1.801,6,2.564
	c0-0.002,0.012,0.003,0.012,0c0-0.002,0-0.006,0-0.006c0-0.003,0-0.007,0-0.007c-0.037-2.434-0.288-4.731-0.539-6.477
	c1.256-1.303,2.847-3.076,4.244-5.004c0-0.003,0,0-0.012,0l-0.013-0.007c-2.329-0.681-4.598-1.122-6.338-1.396
	c-0.836-1.613-2.019-3.708-3.415-5.668C33.687,14.738,33.675,14.735,33.675,14.738z"/>
<path fill="#818181" d="M14.458,35.462v0.005c-0.91,1.304-1.652,2.628-2.169,3.627c-1.119,0.166-2.563,0.431-3.976,0.845v0.004
	c0,0.003,0,0,0,0v0.005c0.928,1.278,1.928,2.404,2.7,3.218c-0.165,1.114-0.326,2.549-0.34,4.002c0,0.001,0,0,0,0c0,0.001,0,0,0,0
	c1.47-0.509,2.815-1.126,3.814-1.624c1.016,0.513,2.367,1.135,3.779,1.615c0-0.001,0,0.001,0,0s0-0.004,0-0.004
	c0-0.001,0-0.004,0-0.005c-0.021-1.533-0.181-2.98-0.339-4.08c0.791-0.821,1.794-1.938,2.673-3.153c0-0.001,0,0,0,0v-0.005
	c-1.468-0.429-2.896-0.706-3.993-0.879C16.083,38.018,15.338,36.698,14.458,35.462C14.458,35.462,14.458,35.461,14.458,35.462"/>
<path fill="#818181" d="M67.917,53.49c-6.222,0-11.51,3.842-14.033,9.324v0.004l-0.133,0.291l-0.322,0.021
	c-5.765,0.422-10.324,5.414-10.324,11.483c0,6.342,4.962,11.556,11.098,11.556h13.719h12.787c4.62,0,8.354-3.929,8.354-8.685
	c0-3.607-2.164-6.637-5.232-7.942v-0.004l-0.311-0.132l-0.02-0.338v-0.002c-0.392-8.631-7.17-15.576-15.579-15.576H67.917z
	 M67.987,57.638L67.987,57.638h0.264v0.056c6.099,0.145,11.026,5.094,11.026,11.228c0,0.206-0.015,0.397-0.026,0.58v0.015v0.301
	v0.002c-0.011,0.988-0.195,1.824-0.291,2.295c0.228-0.043,0.428-0.098,0.99-0.108c2.786,0.001,5.051,2.272,5.051,5.058
	c0,2.784-2.267,5.053-5.051,5.055l-25.287,0.009c-4.142,0.001-7.514-3.366-7.515-7.507c0-4.143,3.372-7.514,7.515-7.512
	c0.78,0,1.523,0.201,2.246,0.44c0.699-5.594,5.373-9.894,11.073-9.905v-0.005H67.987z M67.987,57.645l-0.248,0.248v0.012
	c0,0,0.01,0,0.014,0v-0.017l0.016,0.017c0.073-0.002,0.145-0.012,0.218-0.012v-0.002L67.987,57.645L67.987,57.645z"/>
<path fill="#818181" d="M67.329,20.841c4.776,7.285,6.465,16.21,4.197,24.725v0.002c-1.296,4.837-3.683,9.09-6.816,12.581
	c1.036-0.322,2.132-0.504,3.273-0.506v-0.005h0.004h0.264v0.056c0.62,0.015,1.223,0.09,1.814,0.201
	c2.396-3.314,4.242-7.105,5.361-11.284v-0.008c1.096-4.116,1.181-8.337,0.744-12.537l-0.354-3.391h0.002l2.129,2.662
	c5.514,6.899,7.812,16.207,5.35,25.422v0.002c-0.878,3.277-2.283,6.265-4.094,8.904c0.047,0.413,0.074,0.831,0.074,1.256
	c0,0.206-0.016,0.397-0.027,0.58v0.015v0.301v0.002c-0.012,0.987-0.195,1.824-0.291,2.295c0.228-0.043,0.428-0.098,0.991-0.108
	c0.324,0,0.642,0.035,0.95,0.095c2.86-3.5,5.048-7.642,6.295-12.294c4.364-16.322-4.422-32.944-19.865-38.965H67.329z
	 M24.888,63.143c3.756,9.717,11.88,17.168,22.051,19.907v-0.002c6.843,1.834,13.753,1.362,19.92-0.926l-12.195,0.004
	c-2.345,0.001-4.441-1.08-5.82-2.767c-0.287-0.068-0.574-0.133-0.861-0.209v-0.002c-3.729-1.006-6.977-2.896-9.885-5.123
	l-2.717-2.08l3.408,0.291c3.014,0.256,6.002,0.108,8.9-0.396c1.107-2.771,3.814-4.735,6.975-4.733c0.78,0,1.523,0.201,2.245,0.44
	c0.174-1.376,0.589-2.672,1.198-3.847c-7.001,4.381-15.729,5.963-24.326,3.66v-0.002C30.58,66.49,27.638,64.969,24.888,63.143"/>
<path fill="#818181" d="M67.987,57.645l-0.248,0.248v0.012c0,0,0.01,0,0.014,0v-0.017l0.017,0.017
	c0.072-0.002,0.144-0.012,0.217-0.012v-0.002L67.987,57.645L67.987,57.645z"/>
</svg>
