<?xml version="1.0" encoding="utf-8"?>
<!-- Generator: Adobe Illustrator 16.0.0, SVG Export Plug-In . SVG Version: 6.00 Build 0)  -->
<!DOCTYPE svg PUBLIC "-//W3C//DTD SVG 1.1//EN" "http://www.w3.org/Graphics/SVG/1.1/DTD/svg11.dtd">
<svg version="1.1" id="Layer_1" xmlns="http://www.w3.org/2000/svg" xmlns:xlink="http://www.w3.org/1999/xlink" x="0px" y="0px"
	 width="100px" height="100px" viewBox="0 0 100 100" enable-background="new 0 0 100 100" xml:space="preserve">
<path fill="#818285" d="M53.295,21.823c-11.104,0-20.535,6.845-25.036,16.612l-0.246,0.534l-0.59,0.043
	c-10.279,0.748-18.41,9.636-18.41,20.439c0,11.291,8.845,20.57,19.783,20.57h24.499H76.13c8.231,0,14.883-6.986,14.883-15.449
	c0-6.416-3.855-11.809-9.324-14.13l-0.58-0.246l-0.028-0.629C80.383,34.195,68.294,21.823,53.295,21.823 M53.524,25.834h0.008
	c12.847,0,23.281,10.436,23.281,23.281v0.002v0.004c-0.008,1.425-0.246,2.832-0.512,4.232c5.966,0.365,10.747,5.225,10.746,11.279
	c0.001,6.295-5.123,11.418-11.418,11.418L29.604,75.91c-9.086-0.002-16.473-7.389-16.473-16.475c0-9.089,7.389-16.478,16.477-16.478
	c0.507,0.004,1.011,0.07,1.517,0.121C33.848,32.968,42.981,25.844,53.524,25.834"/>
</svg>
