<?xml version="1.0" encoding="UTF-8" standalone="no"?>
<!-- Created with Inkscape (http://www.inkscape.org/) -->

<svg
   xmlns:dc="http://purl.org/dc/elements/1.1/"
   xmlns:cc="http://creativecommons.org/ns#"
   xmlns:rdf="http://www.w3.org/1999/02/22-rdf-syntax-ns#"
   xmlns:svg="http://www.w3.org/2000/svg"
   xmlns="http://www.w3.org/2000/svg"
   xmlns:sodipodi="http://sodipodi.sourceforge.net/DTD/sodipodi-0.dtd"
   xmlns:inkscape="http://www.inkscape.org/namespaces/inkscape"
   width="90"
   height="90"
   id="svg3642"
   version="1.1"
   inkscape:version="0.91 r13725"
   viewBox="0 0 90 90"
   sodipodi:docname="sunrise.svg">
  <defs
     id="defs3644" />
  <sodipodi:namedview
     id="base"
     pagecolor="#ffffff"
     bordercolor="#666666"
     borderopacity="1.0"
     inkscape:pageopacity="0.0"
     inkscape:pageshadow="2"
     inkscape:zoom="5.5"
     inkscape:cx="1.4545455"
     inkscape:cy="32"
     inkscape:current-layer="layer1"
     showgrid="true"
     inkscape:document-units="px"
     inkscape:grid-bbox="true"
     inkscape:window-width="1855"
     inkscape:window-height="1056"
     inkscape:window-x="65"
     inkscape:window-y="24"
     inkscape:window-maximized="1" />
  <metadata
     id="metadata3647">
    <rdf:RDF>
      <cc:Work
         rdf:about="">
        <dc:format>image/svg+xml</dc:format>
        <dc:type
           rdf:resource="http://purl.org/dc/dcmitype/StillImage" />
        <dc:title></dc:title>
      </cc:Work>
    </rdf:RDF>
  </metadata>
  <g
     id="layer1"
     inkscape:label="Layer 1"
     inkscape:groupmode="layer"
     transform="translate(0,26)">
    <path
       style="fill:#808080;fill-opacity:1"
       d="m 26.78212,5.9887068 -5.382513,-9.3529353 2.093211,-1.1925985 c 1.151271,-0.65592 2.107413,-1.174671 2.124765,-1.152765 0.313155,0.395325 10.541061,18.372014 10.541061,18.527102 0,0.121167 -0.536958,0.524286 -1.193238,0.895824 -0.656289,0.371547 -1.554939,0.889911 -1.99701,1.151919 L 32.164633,15.341641 26.78212,5.9887068 Z"
       id="path3437"
       inkscape:connector-curvature="0" />
    <path
       style="fill:#808080;fill-opacity:1"
       d="m 42.749893,0.3532757 0,-10.6823697 2.386485,0 2.386485,0 0,10.6823697 0,10.6823603 -2.386485,0 -2.386485,0 0,-10.6823603 z"
       id="path3439"
       inkscape:connector-curvature="0" />
    <path
       style="fill:#808080;fill-opacity:1"
       d="M 56.046025,14.195662 C 55.045972,13.59223 54.130753,13.062283 54.012196,13.018003 53.848144,12.956713 61.28128,-0.2748253 64.150641,-5.02921 l 0.436437,-0.723159 1.979793,1.141956 c 1.088883,0.6280825 2.017233,1.1784505 2.062989,1.2230456 0.08784,0.08559 -10.018844,17.7534264 -10.490561,18.3388854 -0.237942,0.295308 -0.520002,0.193464 -2.093274,-0.755856 z"
       id="path3441"
       inkscape:connector-curvature="0" />
    <path
       style="fill:#808080;fill-opacity:1"
       d="M 63.87093,22.143905 C 63.219591,21.005711 62.784261,20.007647 62.893962,19.904048 63.177039,19.63673 81.221725,9.1995467 81.276697,9.2713397 c 0.282537,0.369027 2.389788,4.1043953 2.339028,4.1462363 -0.03753,0.03096 -3.392335,1.976715 -7.455034,4.323898 -4.062708,2.347191 -8.225586,4.759875 -9.250839,5.361516 l -1.864089,1.093905 -1.174833,-2.05299 z"
       id="path3445"
       inkscape:connector-curvature="0" />
    <path
       style="fill:#808080;fill-opacity:1"
       d="m 1.8387093,32.887313 0,-2.53251 13.6075957,0 13.607586,0 0.620559,-1.761453 c 2.147886,-6.096807 5.892831,-9.823986 11.166354,-11.11338 2.201751,-0.538335 6.756111,-0.534681 8.727615,0.0072 5.170455,1.420614 9.12609,5.644305 11.040102,11.788227 l 0.407133,1.306881 13.481909,0 13.481911,0 0,2.272842 0,2.272842 -41.673339,0 c -22.920327,0 -42.3019986,0.0657 -43.0703737,0.146025 l -1.397052,0.146016 0,-2.532501 z M 55.616266,29.616128 c -0.413046,-2.094669 -2.175516,-4.507155 -4.292244,-5.875263 -4.577967,-2.958876 -9.971064,-2.49669 -13.914819,1.192491 -1.555938,1.455507 -2.841543,3.616272 -2.841543,4.775895 l 0,0.645552 10.597131,0 10.597131,0 -0.145656,-0.738675 z"
       id="path3447"
       inkscape:connector-curvature="0" />
    <path
       style="fill:#808080;fill-opacity:1"
       d="m 15.922288,18.850454 c -5.058325,-2.928024 -9.2259277,-5.40856 -9.2613247,-5.512285 -0.03537,-0.103734 0.459243,-1.078245 1.099215,-2.16558 l 1.163583,-1.9769753 0.719055,0.424107 C 10.038303,9.8529737 14.146156,12.22684 18.7714,14.89498 c 4.625235,2.668132 8.483391,4.91356 8.573679,4.989826 0.09029,0.07623 -0.37359,1.072584 -1.030833,2.214009 l -1.194993,2.075328 -9.196965,-5.323689 z"
       id="path3449"
       inkscape:connector-curvature="0" />
  </g>
</svg>
