<?xml version="1.0" encoding="UTF-8" standalone="no"?>
<!-- Created with Inkscape (http://www.inkscape.org/) -->

<svg
   xmlns:dc="http://purl.org/dc/elements/1.1/"
   xmlns:cc="http://creativecommons.org/ns#"
   xmlns:rdf="http://www.w3.org/1999/02/22-rdf-syntax-ns#"
   xmlns:svg="http://www.w3.org/2000/svg"
   xmlns="http://www.w3.org/2000/svg"
   xmlns:sodipodi="http://sodipodi.sourceforge.net/DTD/sodipodi-0.dtd"
   xmlns:inkscape="http://www.inkscape.org/namespaces/inkscape"
   width="90"
   height="90"
   id="svg3642"
   version="1.1"
   inkscape:version="0.91 r13725"
   viewBox="0 0 90 90"
   sodipodi:docname="sunset.svg">
  <defs
     id="defs3644" />
  <sodipodi:namedview
     id="base"
     pagecolor="#ffffff"
     bordercolor="#666666"
     borderopacity="1.0"
     inkscape:pageopacity="0.0"
     inkscape:pageshadow="2"
     inkscape:zoom="5.5"
     inkscape:cx="1.4545455"
     inkscape:cy="32"
     inkscape:current-layer="layer1"
     showgrid="true"
     inkscape:document-units="px"
     inkscape:grid-bbox="true"
     inkscape:window-width="1855"
     inkscape:window-height="1056"
     inkscape:window-x="65"
     inkscape:window-y="24"
     inkscape:window-maximized="1" />
  <metadata
     id="metadata3647">
    <rdf:RDF>
      <cc:Work
         rdf:about="">
        <dc:format>image/svg+xml</dc:format>
        <dc:type
           rdf:resource="http://purl.org/dc/dcmitype/StillImage" />
        <dc:title></dc:title>
      </cc:Work>
    </rdf:RDF>
  </metadata>
  <g
     id="layer1"
     inkscape:label="Layer 1"
     inkscape:groupmode="layer"
     transform="translate(0,26)">
    <path
       style="fill:#808080;fill-opacity:1"
       d="m 63.036063,25.102202 5.382513,9.352936 -2.093211,1.192598 c -1.151271,0.65592 -2.107413,1.174671 -2.124765,1.152765 -0.313155,-0.395325 -10.541061,-18.372014 -10.541061,-18.527102 0,-0.121167 0.536958,-0.524286 1.193238,-0.895824 0.656289,-0.371547 1.554939,-0.889911 1.99701,-1.151919 l 0.803763,-0.476388 5.382513,9.352934 z"
       id="path3437"
       inkscape:connector-curvature="0" />
    <path
       style="fill:#808080;fill-opacity:1"
       d="m 47.06829,30.737633 0,10.68237 -2.386485,0 -2.386485,0 0,-10.68237 0,-10.68236 2.386485,0 2.386485,0 0,10.68236 z"
       id="path3439"
       inkscape:connector-curvature="0" />
    <path
       style="fill:#808080;fill-opacity:1"
       d="m 33.772158,16.895247 c 1.000053,0.603432 1.915272,1.133379 2.033829,1.177659 0.164052,0.06129 -7.269084,13.292828 -10.138445,18.047213 l -0.436437,0.723159 -1.979793,-1.141956 c -1.088883,-0.628083 -2.017233,-1.178451 -2.062989,-1.223046 -0.08784,-0.08559 10.018844,-17.753426 10.490561,-18.338885 0.237942,-0.295308 0.520002,-0.193464 2.093274,0.755856 z"
       id="path3441"
       inkscape:connector-curvature="0" />
    <path
       style="fill:#808080;fill-opacity:1"
       d="m 25.947253,8.947004 c 0.651339,1.138194 1.086669,2.136258 0.976968,2.239857 -0.283077,0.267318 -18.3277627,10.704501 -18.3827347,10.632708 -0.282537,-0.369027 -2.389788,-4.104395 -2.339028,-4.146236 0.03753,-0.03096 3.392335,-1.976715 7.4550337,-4.323898 4.062708,-2.347191 8.225586,-4.759875 9.250839,-5.361516 l 1.864089,-1.093905 1.174833,2.05299 z"
       id="path3445"
       inkscape:connector-curvature="0" />
    <path
       style="fill:#808080;fill-opacity:1"
       d="m 87.979474,-1.796404 0,2.53251 -13.607596,0 -13.607586,0 -0.620559,1.761453 c -2.147886,6.096807 -5.892831,9.823986 -11.166354,11.11338 -2.201751,0.538335 -6.756111,0.534681 -8.727615,-0.0072 C 35.079309,12.183125 31.123674,7.959434 29.209662,1.815512 l -0.407133,-1.306881 -13.481909,0 -13.4819107,0 0,-2.272842 0,-2.272842 41.6733387,0 c 22.920327,0 42.301999,-0.0657 43.070374,-0.146025 l 1.397052,-0.146016 0,2.532501 z M 34.201917,1.474781 c 0.413046,2.094669 2.175516,4.507155 4.292244,5.875263 4.577967,2.958876 9.971064,2.49669 13.914819,-1.192491 1.555938,-1.455507 2.841543,-3.616272 2.841543,-4.775895 l 0,-0.645552 -10.597131,0 -10.597131,0 0.145656,0.738675 z"
       id="path3447"
       inkscape:connector-curvature="0" />
    <path
       style="fill:#808080;fill-opacity:1"
       d="m 73.895895,12.240455 c 5.058325,2.928024 9.225928,5.40856 9.261325,5.512285 0.03537,0.103734 -0.459243,1.078245 -1.099215,2.16558 l -1.163583,1.976975 -0.719055,-0.424107 c -0.395487,-0.233253 -4.50334,-2.607119 -9.128584,-5.275259 -4.625235,-2.668132 -8.483391,-4.91356 -8.573679,-4.989826 -0.09029,-0.07623 0.37359,-1.072584 1.030833,-2.214009 l 1.194993,-2.075328 9.196965,5.323689 z"
       id="path3449"
       inkscape:connector-curvature="0" />
  </g>
</svg>
