<?xml version="1.0" encoding="utf-8"?>
<!-- Generator: Adobe Illustrator 16.0.0, SVG Export Plug-In . SVG Version: 6.00 Build 0)  -->
<!DOCTYPE svg PUBLIC "-//W3C//DTD SVG 1.1//EN" "http://www.w3.org/Graphics/SVG/1.1/DTD/svg11.dtd">
<svg version="1.1" id="Layer_1" xmlns="http://www.w3.org/2000/svg" xmlns:xlink="http://www.w3.org/1999/xlink" x="0px" y="0px"
	 width="100px" height="100px" viewBox="0 0 100 100" enable-background="new 0 0 100 100" xml:space="preserve">
<path fill="#818181" d="M52.593,12.922c-10.004,0.005-18.5,6.132-22.555,14.873l-0.246,0.536l-0.588,0.043
	c-9.254,0.669-16.569,8.611-16.568,18.269v1.711v0.568v4h4.169v-4v-0.568v-1.635c0-7.826,6.401-14.187,14.268-14.186
	c0.548,0.004,1.09,0.09,1.633,0.154c2.178-9.186,10.397-15.778,19.969-15.783c11.354,0,20.587,9.168,20.586,20.459v0.002v0.005
	c-0.008,1.419-0.303,2.811-0.602,4.198c0.026,0,0.053-0.006,0.08-0.006c5.362,0,9.737,4.343,9.737,9.683
	c0,5.338-4.375,9.68-9.737,9.68l-60.115-0.004v4h60.631c7.406,0,13.369-6.129,13.369-13.676c0-5.726-3.46-10.533-8.375-12.607
	l-0.582-0.246l-0.028-0.631c-0.627-13.758-11.518-24.833-25.035-24.84H52.593z M12.624,76.922h74v-4h-74V76.922z M12.624,88.922h74
	v-4h-74V88.922z"/>
</svg>
