<?xml version="1.0" encoding="utf-8"?>
<!-- Generator: Adobe Illustrator 16.0.0, SVG Export Plug-In . SVG Version: 6.00 Build 0)  -->
<!DOCTYPE svg PUBLIC "-//W3C//DTD SVG 1.1//EN" "http://www.w3.org/Graphics/SVG/1.1/DTD/svg11.dtd">
<svg version="1.1" id="Layer_1" xmlns="http://www.w3.org/2000/svg" xmlns:xlink="http://www.w3.org/1999/xlink" x="0px" y="0px"
	 width="100px" height="100px" viewBox="0 0 100 100" enable-background="new 0 0 100 100" xml:space="preserve">
<path fill="#818285" d="M52.013,12.326l-4,1.332v7.279h4V12.326z M31.745,17.295l-3.465,2l4,6.929l3.465-2L31.745,17.295z
	 M68.28,17.295l-4,6.929l3.465,2l4-6.929L68.28,17.295z M50.013,26.937c-14.371,0-26,11.629-26,26
	c0.008,11.83,7.988,22.154,19.436,25.141l0.131,0.033c0.488,5.753,5.141,10.326,10.828,10.326h13.412h12.498
	c4.533,0,8.195-3.854,8.195-8.518c0-3.537-2.122-6.509-5.132-7.789l-0.289-0.125l-0.015-0.312
	c-0.255-5.624-3.288-10.506-7.711-13.15l0.039-0.172c0.394-1.785,0.596-3.609,0.607-5.438
	C76.011,38.564,64.383,26.937,50.013,26.937 M50.013,30.937c12.139,0,22,9.862,22,22v0.004v0.004
	c-0.01,1.154-0.109,2.306-0.298,3.445l-0.095,0.564c-1.216-0.326-2.483-0.518-3.801-0.518c-6.097,0-11.277,3.765-13.748,9.135
	l-0.123,0.268l-0.295,0.021c-4.655,0.339-8.502,3.721-9.717,8.225l-0.468-0.146c-9.189-2.863-15.455-11.379-15.456-21.002
	C28.013,40.799,37.874,30.937,50.013,30.937 M16.37,31.205l-2,3.465l6.931,4l2-3.465L16.37,31.205z M83.655,31.205l-6.932,4
	l2.002,3.465l6.93-4L83.655,31.205z M10.013,54.938h8v-4h-8V54.938z M82.013,54.938h8v-4h-8V54.938z M67.872,60.551h0.002h0.009
	c6.065,0.004,10.993,4.935,10.993,11.002c0,0.201-0.018,0.392-0.029,0.586v0.287c-0.011,0.986-0.192,1.777-0.291,2.279
	c0.302-0.049,0.428-0.098,1.002-0.107h0.012c2.706,0,4.91,2.203,4.91,4.91s-2.203,4.914-4.91,4.914l-24.717,0.01
	c-4.032,0-7.314-3.28-7.314-7.312c-0.001-4.033,3.281-7.312,7.314-7.312c0.759,0,1.493,0.205,2.213,0.438
	C57.735,64.773,62.304,60.562,67.872,60.551 M21.301,67.205l-6.931,4l2,3.465l6.931-4L21.301,67.205z M32.28,79.65l-4,6.93l3.465,2
	l4-6.93L32.28,79.65z"/>
</svg>
