<?xml version="1.0" encoding="utf-8"?>
<!-- Generator: Adobe Illustrator 16.0.0, SVG Export Plug-In . SVG Version: 6.00 Build 0)  -->
<!DOCTYPE svg PUBLIC "-//W3C//DTD SVG 1.1//EN" "http://www.w3.org/Graphics/SVG/1.1/DTD/svg11.dtd">
<svg version="1.1" id="Layer_1" xmlns="http://www.w3.org/2000/svg" xmlns:xlink="http://www.w3.org/1999/xlink" x="0px" y="0px"
	 width="100px" height="100px" viewBox="0 0 100 100" enable-background="new 0 0 100 100" xml:space="preserve">
<path fill="#818181" d="M67.463,68.004c-2.34,5.406-4.102,10.639-4.219,11.028l-0.016,0.043l-0.014,0.043
	c0.009-0.024-0.006,0.019-0.043,0.132c-0.15,0.455-0.232,0.928-0.232,1.418c0,2.518,2.01,4.526,4.527,4.526
	c2.513-0.006,4.516-2.013,4.516-4.526c0-0.496-0.08-0.969-0.229-1.418l-0.01-0.021l-0.01-0.022
	C71.734,79.207,69.963,73.832,67.463,68.004 M32.829,69.213c-2.008,4.703-3.531,9.19-3.633,9.53l-0.016,0.046l-0.017,0.045
	c0.017-0.043,0.003-0.002-0.034,0.11v0.002c-0.129,0.392-0.199,0.796-0.199,1.22c0,2.174,1.73,3.903,3.905,3.903
	c2.167-0.007,3.892-1.733,3.892-3.903c0-0.427-0.069-0.834-0.197-1.222l-0.01-0.022l-0.01-0.021
	C36.51,78.901,34.975,74.278,32.829,69.213 M50.146,70.35c-2.967,6.725-5.175,13.365-5.322,13.855l-0.012,0.041l-0.018,0.038
	c0.012-0.034-0.003,0.028-0.052,0.175v0.002c-0.189,0.571-0.293,1.168-0.293,1.785c0,3.166,2.535,5.7,5.703,5.7
	c3.161-0.007,5.687-2.538,5.687-5.7c0-0.625-0.102-1.223-0.287-1.787l-0.01-0.021l-0.01-0.022
	C55.533,84.416,53.318,77.611,50.146,70.35"/>
<path fill="#818181" d="M52.523,8.96c-9.938,0-18.38,6.125-22.41,14.871l-0.246,0.537l-0.59,0.043
	C20.092,25.08,12.825,33.02,12.825,42.68c0,10.095,7.905,18.386,17.679,18.386h22.02h20.525c7.342,0,13.275-6.232,13.275-13.784
	c0-5.727-3.439-10.535-8.318-12.608l-0.58-0.246l-0.027-0.629C76.775,20.033,65.949,8.96,52.523,8.96 M52.6,12.942h0.012
	c11.287,0,20.457,9.172,20.457,20.459v0.002v0.002c-0.004,1.421-0.3,2.814-0.598,4.201c0.023,0,0.048-0.006,0.072-0.006
	c5.336,0,9.682,4.347,9.682,9.682s-4.346,9.681-9.682,9.681l-41.402-0.021c-7.823,0-14.186-6.362-14.186-14.185
	c0-7.822,6.363-14.185,14.186-14.185c0.543,0.003,1.079,0.089,1.617,0.154C34.922,19.542,43.085,12.947,52.6,12.942"/>
</svg>
