<?xml version="1.0" encoding="utf-8"?>
<!-- Generator: Adobe Illustrator 16.0.0, SVG Export Plug-In . SVG Version: 6.00 Build 0)  -->
<!DOCTYPE svg PUBLIC "-//W3C//DTD SVG 1.1//EN" "http://www.w3.org/Graphics/SVG/1.1/DTD/svg11.dtd">
<svg version="1.1" id="Layer_1" xmlns="http://www.w3.org/2000/svg" xmlns:xlink="http://www.w3.org/1999/xlink" x="0px" y="0px"
	 width="100px" height="100px" viewBox="0 0 100 100" enable-background="new 0 0 100 100" xml:space="preserve">
<path fill="#818181" d="M52.523,10.719c-9.938,0-18.379,6.125-22.41,14.871l-0.246,0.537l-0.59,0.043
	c-9.186,0.669-16.453,8.609-16.453,18.269c0,10.094,7.905,18.387,17.679,18.387h22.02h20.525c7.342,0,13.275-6.232,13.275-13.786
	c0-5.727-3.439-10.535-8.318-12.607l-0.58-0.246l-0.027-0.629C76.775,21.792,65.949,10.719,52.523,10.719 M52.6,14.701h0.012
	c11.287,0,20.457,9.172,20.457,20.459v0.002v0.002c-0.004,1.421-0.299,2.814-0.598,4.201c0.024,0,0.049-0.006,0.072-0.006
	c5.336,0,9.682,4.347,9.682,9.682c0,5.334-4.346,9.682-9.682,9.682l-41.402-0.021c-7.823,0-14.186-6.363-14.186-14.186
	c0-7.822,6.363-14.186,14.186-14.186c0.543,0.003,1.079,0.089,1.617,0.154C34.922,21.301,43.085,14.706,52.6,14.701"/>
<polygon fill="#818181" points="51.199,73.178 47.95,73.828 47.95,79.105 43.092,76.301 41.467,79.113 46.325,81.92 41.467,84.725 
	43.092,87.537 47.95,84.732 47.95,90.344 51.199,90.344 51.199,84.732 56.057,87.537 57.682,84.725 52.824,81.92 57.682,79.113 
	56.057,76.301 51.199,79.105 "/>
<polygon fill="#818181" points="34.26,68.629 32.006,69.078 32.006,72.705 28.666,70.777 27.539,72.73 30.879,74.658 27.539,76.586 
	28.666,78.539 32.006,76.611 32.006,80.469 34.26,80.469 34.26,76.611 37.602,78.539 38.729,76.586 35.389,74.658 38.729,72.73 
	37.602,70.777 34.26,72.705 "/>
<polygon fill="#818181" points="68.324,66.795 65.662,67.326 65.662,71.455 61.852,69.256 60.52,71.561 64.332,73.762 60.52,75.963 
	61.852,78.268 65.662,76.066 65.662,80.469 68.324,80.469 68.324,76.066 72.138,78.268 73.467,75.963 69.654,73.762 73.467,71.561 
	72.138,69.256 68.324,71.455 "/>
</svg>
