<?xml version="1.0" encoding="utf-8"?>
<!-- Generator: Adobe Illustrator 16.0.0, SVG Export Plug-In . SVG Version: 6.00 Build 0)  -->
<!DOCTYPE svg PUBLIC "-//W3C//DTD SVG 1.1//EN" "http://www.w3.org/Graphics/SVG/1.1/DTD/svg11.dtd">
<svg version="1.1" id="Layer_1" xmlns="http://www.w3.org/2000/svg" xmlns:xlink="http://www.w3.org/1999/xlink" x="0px" y="0px"
	 width="100px" height="100px" viewBox="0 0 100 100" enable-background="new 0 0 100 100" xml:space="preserve">
<path fill="#818181" d="M67.59,20.306c4.775,7.285,6.465,16.21,4.197,24.726v0.002C67.385,61.461,50.47,71.227,34.041,66.826v-0.002
	c-3.2-0.867-6.142-2.391-8.893-4.217c3.757,9.717,11.88,17.166,22.051,19.908v-0.002c17.547,4.701,35.555-5.697,40.258-23.242
	c4.365-16.322-4.422-32.944-19.865-38.965H67.59z M76.08,30.14h0.002l2.129,2.662c5.514,6.899,7.812,16.207,5.35,25.422v0.002
	C79.425,73.662,63.679,82.75,48.244,78.615v-0.002c-3.729-1.006-6.977-2.896-9.885-5.123l-2.717-2.08l3.409,0.291
	c16.48,1.4,32.213-9.111,36.639-25.625v-0.009c1.097-4.115,1.181-8.337,0.744-12.536L76.08,30.14z"/>
<path fill="#818181" d="M33.936,14.203v0.007h-0.012c-1.445,2.071-2.622,4.173-3.442,5.758c-1.777,0.263-4.07,0.684-6.311,1.341
	v0.007c0,0.004,0.012,0,0.012,0v0.007c1.472,2.028,3.06,3.815,4.286,5.108c-0.262,1.768-0.518,4.046-0.54,6.352
	c0,0.003,0.012,0,0.012,0c0,0.003,0.012,0,0.012,0c2.333-0.807,4.469-1.787,6.055-2.578c1.612,0.814,3.758,1.802,6,2.564
	c0-0.002,0.012,0.003,0.012,0c0-0.002,0-0.006,0-0.006c0-0.003,0-0.008,0-0.008c-0.037-2.434-0.288-4.73-0.539-6.477
	c1.256-1.303,2.847-3.076,4.244-5.004c0-0.003,0,0-0.012,0l-0.012-0.007c-2.33-0.682-4.598-1.122-6.338-1.396
	c-0.836-1.612-2.019-3.708-3.415-5.668C33.947,14.203,33.936,14.201,33.936,14.203z"/>
<path fill="#818181" d="M14.719,34.928v0.005c-0.91,1.304-1.652,2.628-2.169,3.627c-1.119,0.166-2.563,0.431-3.975,0.845v0.004
	c0,0.003,0,0,0,0v0.005c0.927,1.278,1.927,2.404,2.7,3.219c-0.165,1.113-0.326,2.549-0.34,4.002c1.47-0.51,2.815-1.126,3.814-1.624
	c1.016,0.513,2.368,1.135,3.78,1.614c0-0.001,0,0.001,0,0s0-0.004,0-0.004c0-0.001,0-0.004,0-0.005
	c-0.022-1.533-0.181-2.979-0.339-4.08c0.791-0.821,1.794-1.938,2.673-3.152c0-0.001,0,0,0,0v-0.006
	c-1.468-0.429-2.896-0.706-3.993-0.879C16.344,37.483,15.599,36.163,14.719,34.928C14.719,34.928,14.719,34.927,14.719,34.928z"/>
</svg>
