<?xml version="1.0" encoding="utf-8"?>
<!-- Generator: Adobe Illustrator 16.0.0, SVG Export Plug-In . SVG Version: 6.00 Build 0)  -->
<!DOCTYPE svg PUBLIC "-//W3C//DTD SVG 1.1//EN" "http://www.w3.org/Graphics/SVG/1.1/DTD/svg11.dtd">
<svg version="1.1" id="Layer_1" xmlns="http://www.w3.org/2000/svg" xmlns:xlink="http://www.w3.org/1999/xlink" x="0px" y="0px"
	 width="100px" height="100px" viewBox="0 0 100 100" enable-background="new 0 0 100 100" xml:space="preserve">
<path fill="#818285" d="M52.013,10.225l-4,1.332v7.279h4V10.225z M31.745,15.194l-3.464,2l4,6.93l3.464-2L31.745,15.194z
	 M68.281,15.194l-4,6.93l3.464,2l4-6.93L68.281,15.194z M50.013,24.836c-14.371,0-26,11.629-26,26c0,14.373,11.629,26,26,26
	s26-11.627,26-26C76.013,36.465,64.384,24.836,50.013,24.836 M50.013,28.836c12.139,0,22,9.862,22,22c0,12.138-9.861,22-22,22
	c-12.138,0-22-9.861-22-22C28.013,38.698,37.875,28.836,50.013,28.836 M16.37,29.104l-2,3.465l6.93,4l2-3.465L16.37,29.104z
	 M83.656,29.104l-6.933,4l2.002,3.465l6.931-4L83.656,29.104z M10.013,52.836h8v-4h-8V52.836z M82.013,52.836h8v-4h-8V52.836z
	 M21.3,65.104l-6.93,4l2,3.465l6.93-4L21.3,65.104z M78.726,65.104l-2.002,3.465l6.933,4l2-3.465L78.726,65.104z M32.281,77.549
	l-4,6.93l3.464,2l4-6.93L32.281,77.549z M67.745,77.549l-3.464,2l4,6.93l3.464-2L67.745,77.549z M48.013,90.836h4v-8h-4V90.836z"/>
</svg>
