<?xml version="1.0" encoding="utf-8"?>
<!-- Generator: Adobe Illustrator 16.0.0, SVG Export Plug-In . SVG Version: 6.00 Build 0)  -->
<!DOCTYPE svg PUBLIC "-//W3C//DTD SVG 1.1//EN" "http://www.w3.org/Graphics/SVG/1.1/DTD/svg11.dtd">
<svg version="1.1" id="Layer_1" xmlns="http://www.w3.org/2000/svg" xmlns:xlink="http://www.w3.org/1999/xlink" x="0px" y="0px"
	 width="100px" height="100px" viewBox="0 0 100 100" enable-background="new 0 0 100 100" xml:space="preserve">
<path fill="#818181" d="M52.573,8.953c-9.938,0-18.38,6.125-22.41,14.871l-0.246,0.537l-0.59,0.043
	c-9.186,0.669-16.453,8.609-16.453,18.269c0,10.094,7.905,18.387,17.679,18.387h22.02h20.524c7.343,0,13.276-6.233,13.276-13.785
	c0-5.727-3.44-10.535-8.319-12.608l-0.58-0.246l-0.026-0.629C76.824,20.026,65.999,8.953,52.573,8.953 M52.649,12.935h0.012
	c11.287,0,20.457,9.172,20.457,20.459v0.002v0.002c-0.005,1.421-0.3,2.814-0.599,4.201c0.024,0,0.049-0.006,0.072-0.006
	c5.336,0,9.683,4.347,9.683,9.682s-4.347,9.682-9.683,9.682L31.19,56.936c-7.823,0-14.186-6.363-14.186-14.186
	c0-7.822,6.363-14.185,14.186-14.185c0.543,0.003,1.079,0.089,1.617,0.154C34.971,19.535,43.134,12.94,52.649,12.935"/>
<polygon fill="#818181" points="43.806,56.953 42.515,74.045 50.502,74.045 48.624,91.953 62.321,66.953 52.867,66.953 
	54.472,56.953 "/>
</svg>
