<?xml version="1.0" encoding="utf-8"?>
<!-- Generator: Adobe Illustrator 16.0.0, SVG Export Plug-In . SVG Version: 6.00 Build 0)  -->
<!DOCTYPE svg PUBLIC "-//W3C//DTD SVG 1.1//EN" "http://www.w3.org/Graphics/SVG/1.1/DTD/svg11.dtd">
<svg version="1.1" id="Layer_1" xmlns="http://www.w3.org/2000/svg" xmlns:xlink="http://www.w3.org/1999/xlink" x="0px" y="0px"
	 width="100px" height="100px" viewBox="0 0 100 100" enable-background="new 0 0 100 100" xml:space="preserve">
<path fill="#818181" d="M51.571,15.195c-0.906,0-1.818,0.151-2.74,0.459l-0.018,0.006l-0.02,0.007
	c-0.888,0.258-1.664,0.676-2.365,1.267v0.002v0.002c-0.644,0.536-1.198,1.251-1.652,2.199v0.008v0.008
	c-0.04,0.08-0.075,0.247-0.113,0.355l2.098,1.209c0.027-0.074,0.007-0.116,0.041-0.193l0.01-0.016l0.01-0.014
	c0.312-0.624,0.756-1.17,1.326-1.572c0.501-0.393,1.048-0.687,1.635-0.85c0.592-0.193,1.179-0.293,1.746-0.293
	c1.209,0,2.363,0.473,3.348,1.299c1.135,0.872,1.715,2.258,1.715,3.824c0,1.649-0.584,3.115-1.771,4.039
	c-1.13,0.909-2.661,1.297-4.494,1.297H49.43h-5.028H41.47H25.175v3.912h23.486c3.466,0,6.062-0.713,7.869-2.031
	c1.718-1.253,2.631-3.407,2.641-6.805v-0.025c0-1.669-0.282-2.966-0.782-3.924v-0.008v-0.008c-0.534-1.075-1.18-1.872-1.933-2.445
	l-0.012-0.008l-0.012-0.01c-0.794-0.643-1.605-1.058-2.471-1.273l-0.025-0.006l-0.023-0.008c-0.908-0.276-1.685-0.404-2.317-0.404
	H51.571z M81.45,26.9c-0.922,0-1.849,0.154-2.787,0.467l-0.018,0.006l-0.021,0.007c-0.903,0.263-1.695,0.688-2.408,1.291v0.001
	v0.002c-0.654,0.546-1.218,1.272-1.68,2.238v0.009v0.007c-0.044,0.088-0.08,0.259-0.121,0.375l2.16,1.244
	c0.03-0.082,0.006-0.129,0.045-0.215l0.01-0.016l0.012-0.014c0.314-0.63,0.763-1.183,1.34-1.589c0.509-0.399,1.062-0.695,1.657-0.86
	c0.597-0.196,1.191-0.299,1.769-0.299c1.224,0,2.393,0.479,3.391,1.316c1.149,0.884,1.734,2.286,1.734,3.873
	c0,1.672-0.591,3.153-1.793,4.088c-1.145,0.921-2.695,1.314-4.555,1.314h-0.906h-5.109h-2.977H18.825v0.004h-1
	c-1.016,0.001-2.016,0.159-2.939,0.488v0.002v0.002c-0.942,0.327-1.824,0.867-2.525,1.567v0.002v0.002
	c-0.729,0.717-1.272,1.624-1.627,2.606v0.002c-0.373,1.025-0.529,2.134-0.529,3.332c0,1.2,0.157,2.315,0.529,3.348l0.01,0.029
	c0.357,0.967,0.894,1.863,1.607,2.578l0.012,0.012v0.004c0.699,0.684,1.567,1.215,2.496,1.551l0.01,0.002l0.041,0.016
	c0.923,0.316,1.915,0.467,2.932,0.467h1v0.002h40.344h2.98h5.115h0.908c1.861,0,3.414,0.396,4.559,1.316
	c1.203,0.934,1.797,2.418,1.797,4.092c0,1.588-0.587,2.99-1.736,3.875c-0.998,0.838-2.169,1.318-3.395,1.318
	c-0.578,0-1.173-0.104-1.771-0.299c-0.595-0.166-1.149-0.463-1.658-0.861c-0.577-0.408-1.026-0.961-1.342-1.592l-0.01-0.016
	l-0.01-0.016c-0.035-0.084-0.016-0.133-0.045-0.213l-2.166,1.248c0.04,0.115,0.078,0.289,0.121,0.375v0.008v0.008
	c0.463,0.965,1.028,1.695,1.684,2.242v0.002v0.002c0.714,0.604,1.509,1.029,2.412,1.293l0.018,0.006l0.02,0.006
	c0.939,0.312,1.867,0.467,2.791,0.467c0.645,0,1.438-0.131,2.361-0.412l0.021-0.008l0.025-0.006c0.883-0.221,1.71-0.643,2.518-1.297
	l0.012-0.01l0.014-0.008c0.768-0.584,1.425-1.396,1.971-2.492v-0.008v-0.008c0.508-0.979,0.797-2.299,0.797-3.998
	c0-3.477-0.94-5.678-2.697-6.959c-1.842-1.342-4.482-2.068-8.01-2.068H18.812v0.01h-1c-0.629,0-1.163-0.094-1.611-0.244
	l-0.016-0.004l-0.014-0.006c-0.402-0.148-0.757-0.377-1.016-0.627l-0.01-0.01l-0.01-0.01c-0.242-0.248-0.49-0.62-0.67-1.104v-0.014
	c-0.002-0.004-0.003-0.011-0.004-0.015l-0.053-0.14v-0.076c-0.139-0.466-0.234-1.025-0.234-1.758c0-0.723,0.092-1.27,0.227-1.725
	v-0.088l0.059-0.164c0.185-0.511,0.439-0.89,0.676-1.121v-0.004l0.012-0.011c0.256-0.258,0.629-0.49,1.021-0.625l0.025-0.011v-0.002
	c0.456-0.164,0.99-0.254,1.613-0.254h60.67c3.522,0,6.161-0.725,8-2.065c1.755-1.28,2.693-3.479,2.693-6.95
	c0-1.696-0.288-3.017-0.795-3.992v-0.008v-0.007c-0.545-1.095-1.202-1.905-1.969-2.489l-0.012-0.008l-0.012-0.01
	c-0.807-0.652-1.632-1.074-2.514-1.295l-0.025-0.006l-0.023-0.008c-0.923-0.281-1.717-0.412-2.359-0.412H81.45z"/>
<polygon fill="#818181" points="51.683,69.762 48.683,70.361 48.683,75.754 43.746,72.902 42.244,75.5 47.183,78.352 42.244,81.201 
	43.746,83.799 48.683,80.947 48.683,86.65 51.683,86.65 51.683,80.947 56.619,83.799 58.119,81.201 53.183,78.352 58.119,75.5 
	56.619,72.902 51.683,75.754 "/>
<polygon fill="#818181" points="30.938,63.518 28.558,63.994 28.558,68.199 24.702,65.975 23.513,68.037 27.368,70.262 
	23.513,72.486 24.702,74.549 28.558,72.324 28.558,76.775 30.938,76.775 30.938,72.324 34.793,74.549 35.983,72.486 32.13,70.262 
	35.983,68.037 34.793,65.975 30.938,68.199 "/>
</svg>
